<svg width="24" height="25" viewBox="0 0 24 25" fill="none" xmlns="http://www.w3.org/2000/svg">
<path fill-rule="evenodd" clip-rule="evenodd" d="M20 5.5H4C3.44772 5.5 3 5.94772 3 6.5V18.5C3 19.0523 3.44772 19.5 4 19.5H20C20.5523 19.5 21 19.0523 21 18.5V6.5C21 5.94772 20.5523 5.5 20 5.5ZM4 3.5C2.34315 3.5 1 4.84315 1 6.5V18.5C1 20.1569 2.34315 21.5 4 21.5H20C21.6569 21.5 23 20.1569 23 18.5V6.5C23 4.84315 21.6569 3.5 20 3.5H4Z" fill="#777E91"/>
<path d="M8 16C8 16.8284 7.32843 17.5 6.5 17.5C5.67157 17.5 5 16.8284 5 16C5 15.1716 5.67157 14.5 6.5 14.5C7.32843 14.5 8 15.1716 8 16Z" fill="#777E91"/>
<path d="M13 16C13 16.8284 12.3284 17.5 11.5 17.5C10.6716 17.5 10 16.8284 10 16C10 15.1716 10.6716 14.5 11.5 14.5C12.3284 14.5 13 15.1716 13 16Z" fill="#777E91"/>
<path d="M1 8.5H23V10.5H1V8.5Z" fill="#777E91"/>
</svg>
