<svg width="24" height="25" viewBox="0 0 24 25" fill="none" xmlns="http://www.w3.org/2000/svg">
<path fill-rule="evenodd" clip-rule="evenodd" d="M19 5.5H5C3.89543 5.5 3 6.39543 3 7.5V17.5C3 18.6046 3.89543 19.5 5 19.5H19C20.1046 19.5 21 18.6046 21 17.5V7.5C21 6.39543 20.1046 5.5 19 5.5ZM5 3.5C2.79086 3.5 1 5.29086 1 7.5V17.5C1 19.7091 2.79086 21.5 5 21.5H19C21.2091 21.5 23 19.7091 23 17.5V7.5C23 5.29086 21.2091 3.5 19 3.5H5Z" fill="#777E91"/>
<path fill-rule="evenodd" clip-rule="evenodd" d="M13 12.5C13 9.73858 15.2386 7.5 18 7.5H22C22.5523 7.5 23 7.94772 23 8.5C23 9.05228 22.5523 9.5 22 9.5H18C16.3431 9.5 15 10.8431 15 12.5C15 14.1569 16.3431 15.5 18 15.5H22C22.5523 15.5 23 15.9477 23 16.5C23 17.0523 22.5523 17.5 22 17.5H18C15.2386 17.5 13 15.2614 13 12.5Z" fill="#777E91"/>
<path d="M19 12.5C19 13.0523 18.5523 13.5 18 13.5C17.4477 13.5 17 13.0523 17 12.5C17 11.9477 17.4477 11.5 18 11.5C18.5523 11.5 19 11.9477 19 12.5Z" fill="#777E91"/>
</svg>
