<svg width="16" height="16" viewBox="0 0 16 16" fill="none" xmlns="http://www.w3.org/2000/svg">
<path fill-rule="evenodd" clip-rule="evenodd" d="M8.00004 13.3335C10.9456 13.3335 13.3334 10.9457 13.3334 8.00016C13.3334 5.05464 10.9456 2.66683 8.00004 2.66683C5.05452 2.66683 2.66671 5.05464 2.66671 8.00016C2.66671 10.9457 5.05452 13.3335 8.00004 13.3335ZM8.00004 14.6668C11.6819 14.6668 14.6667 11.682 14.6667 8.00016C14.6667 4.31826 11.6819 1.3335 8.00004 1.3335C4.31814 1.3335 1.33337 4.31826 1.33337 8.00016C1.33337 11.682 4.31814 14.6668 8.00004 14.6668Z" fill="#E6E8EC"/>
<path d="M8.00004 6.6665C8.00004 6.29832 8.29851 5.99984 8.66671 5.99984H9.33337C9.70157 5.99984 10 5.70136 10 5.33317C10 4.96498 9.70157 4.6665 9.33337 4.6665H8.66671C7.56211 4.6665 6.66671 5.56194 6.66671 6.6665V7.99984H6.00004C5.63185 7.99984 5.33337 8.2983 5.33337 8.6665C5.33337 9.0347 5.63185 9.33317 6.00004 9.33317H6.66671V13.3332C6.66671 13.7014 6.96517 13.9998 7.33337 13.9998C7.70157 13.9998 8.00004 13.7014 8.00004 13.3332V9.33317H9.33337C9.70157 9.33317 10 9.0347 10 8.6665C10 8.2983 9.70157 7.99984 9.33337 7.99984H8.00004V6.6665Z" fill="#E6E8EC"/>
</svg>
