<svg width="16" height="16" viewBox="0 0 16 16" fill="none" xmlns="http://www.w3.org/2000/svg">
<path fill-rule="evenodd" clip-rule="evenodd" d="M10.6667 2.66683H5.33337C3.86061 2.66683 2.66671 3.86074 2.66671 5.3335V10.6668C2.66671 12.1396 3.86061 13.3335 5.33337 13.3335H10.6667C12.1394 13.3335 13.3334 12.1396 13.3334 10.6668V5.3335C13.3334 3.86074 12.1394 2.66683 10.6667 2.66683ZM5.33337 1.3335C3.12423 1.3335 1.33337 3.12436 1.33337 5.3335V10.6668C1.33337 12.876 3.12423 14.6668 5.33337 14.6668H10.6667C12.8758 14.6668 14.6667 12.876 14.6667 10.6668V5.3335C14.6667 3.12436 12.8758 1.3335 10.6667 1.3335H5.33337Z" fill="#E6E8EC"/>
<path d="M11.3333 5.33333C11.7015 5.33333 12 5.03485 12 4.66667C12 4.29848 11.7015 4 11.3333 4C10.9651 4 10.6666 4.29848 10.6666 4.66667C10.6666 5.03485 10.9651 5.33333 11.3333 5.33333Z" fill="#E6E8EC"/>
<path fill-rule="evenodd" clip-rule="evenodd" d="M11.3333 7.99984C11.3333 9.84077 9.84089 11.3332 7.99996 11.3332C6.15901 11.3332 4.66663 9.84077 4.66663 7.99984C4.66663 6.15889 6.15901 4.6665 7.99996 4.6665C9.84089 4.6665 11.3333 6.15889 11.3333 7.99984ZM9.99996 7.99984C9.99996 9.10444 9.10456 9.99984 7.99996 9.99984C6.89536 9.99984 5.99996 9.10444 5.99996 7.99984C5.99996 6.89524 6.89536 5.99984 7.99996 5.99984C9.10456 5.99984 9.99996 6.89524 9.99996 7.99984Z" fill="#E6E8EC"/>
</svg>
